<svg xmlns="http://www.w3.org/2000/svg" width="96.108" height="122.88" viewBox="-48.054 -61.44 192.216 245.76" xml:space="preserve">
  <path fill-rule="evenodd" clip-rule="evenodd" fill="#96c9eb" d="M2.892 56.036h8.959V37.117c0-10.205 4.177-19.484 10.898-26.207v-.009C29.473 4.177 38.754 0 48.966 0 59.17 0 68.449 4.177 75.173 10.901l.01.009c6.721 6.723 10.898 16.002 10.898 26.207v18.919h7.136a2.9 2.9 0 0 1 2.892 2.891v61.062a2.9 2.9 0 0 1-2.892 2.891H2.892A2.9 2.9 0 0 1 0 119.989V58.927a2.9 2.9 0 0 1 2.892-2.891m23.379 0h45.387V36.911c0-6.24-2.554-11.917-6.662-16.03l-.005.004c-4.111-4.114-9.787-6.669-16.025-6.669-6.241 0-11.917 2.554-16.033 6.665-4.109 4.113-6.662 9.79-6.662 16.03zm22.878 33.412 4.581 21.139-12.557.053 3.685-21.423c-3.431-1.1-5.918-4.315-5.918-8.111a8.512 8.512 0 1 1 10.209 8.342"/>
</svg>
