<svg viewBox="0 0 24 24" xmlns="http://www.w3.org/2000/svg">
  <style>
    svg {
      color-scheme: dark light;
    }

    @media (prefers-color-scheme:light) {
      *[fill="#fff"] {
        fill: #0d000b;
      }
    }
  </style>

  <path
    d="M17.523 14.712c-.551 0-1-.43-1-.96s.449-.962 1-.962c.551 0 1 .432 1 .961 0 .53-.449.961-1 .961Zm-11.046 0c-.551 0-1-.43-1-.96s.449-.962 1-.962c.551 0 1 .432 1 .961 0 .53-.449.961-1 .961Zm11.404-5.787 1.998-3.326c.055-.092.07-.2.041-.303a.402.402 0 0 0-.193-.243.43.43 0 0 0-.316-.04.414.414 0 0 0-.252.187l-2.022 3.367A12.75 12.75 0 0 0 12 7.511c-1.853 0-3.59.378-5.137 1.056L4.841 5.2a.414.414 0 0 0-.252-.186.43.43 0 0 0-.316.04.402.402 0 0 0-.193.242.386.386 0 0 0 .041.303l1.997 3.326C2.688 10.718.343 14.056 0 18h24c-.343-3.944-2.69-7.282-6.119-9.075"
    fill="#fff" />
</svg>
