<svg viewBox="0 0 24 24" xmlns="http://www.w3.org/2000/svg">
  <style>
    svg {
      color-scheme: dark light;
    }

    @media (prefers-color-scheme:light) {
      *[fill="#fff"] {
        fill: #0d000b;
      }
    }
  </style>
  <path
    d="M1.1 6C.5 6 0 6.504 0 7.11c0 .302.1.604.3.806.2.202.5.302.8.302.6 0 1.1-.504 1.1-1.109S1.7 6 1.1 6Zm7.6.1c-3.4 0-5.4 2.32-5.4 5.95 0 3.731 2 5.95 5.4 5.95 3.4 0 5.5-2.219 5.5-5.95 0-3.63-2.1-5.95-5.5-5.95Zm10.9 0c-2.5 0-4.3 1.413-4.3 3.43 0 1.613 1 2.722 3.1 3.126l1.5.403c1.4.302 2 .807 2 1.613 0 1.009-.9 1.715-2.3 1.715s-2.5-.706-2.6-1.816h-2C15.1 16.69 16.8 18 19.5 18c2.8 0 4.5-1.31 4.5-3.53 0-1.714-1-2.722-3.3-3.226l-1.3-.303c-1.5-.302-2-.807-2-1.613 0-.908.8-1.614 2.1-1.614 1.4 0 2.3.706 2.4 1.815h1.9c0-2.117-1.7-3.428-4.2-3.428ZM8.7 7.816c2.1 0 3.4 1.614 3.4 4.235 0 2.622-1.3 4.236-3.4 4.236-2 0-3.4-1.614-3.4-4.236 0-2.621 1.4-4.235 3.4-4.235ZM.1 9.328v8.571h2V9.328h-2Z"
    fill="#fff" />
</svg>
