<svg width="460" height="225" viewBox="0 0 460 225" fill="none" xmlns="http://www.w3.org/2000/svg">
  <defs>
    <linearGradient id='b' gradientUnits='objectBoundingBox' x1='0' y1='1' x2='1' y2='1'>
      <stop offset='0' stop-color='#7FFFD4'>
        <animate attributeName="stop-color" values="#7FFFD4;#FF7F50;#DC143C;#7FFFD4;" dur="20s"
          repeatCount="indefinite">
        </animate>
      </stop>
      <stop offset='1' stop-color='#8B008B' stop-opacity="0">
        <animate attributeName="stop-color" values="#8B008B;#7B68EE;#32CD32;#FF7F50;#DC143C;#7FFFD4;#8B008B;" dur="20s"
          repeatCount="indefinite">
        </animate>
      </stop>
      <animateTransform attributeName="gradientTransform" type="rotate" values="360 .5 .5;0 .5 .5" class="ignore"
        dur="10s" repeatCount="indefinite" />
    </linearGradient>
  </defs>
  <style>
    svg {
      color-scheme: dark light;
    }

    @media (prefers-color-scheme:light) {
      *[fill="#0d000b"] {
        fill: #ffffff;
      }

      *[fill="white"] {
        fill: #0d000b;
      }

      *[stroke="#0d000b"] {
        stroke: #ffffff;
      }

      *[stroke="white"] {
        stroke: #0d000b;
      }
    }

    @keyframes fadeIn {
      from {
        opacity: 0;
      }

      to {
        opacity: 1;
      }
    }

    @keyframes fromLeft {
      from {
        transform: translateX(-10%);
      }

      to {
        transform: translateX(0);
      }
    }

    @keyframes fromRight {
      from {
        transform: translateX(10%);
      }

      to {
        transform: translateX(0);
      }
    }

    @keyframes zoom {
      0% {
        transform: scale(1);
      }

      50% {
        transform: scale(1.1);
      }

      100% {
        transform: scale(1);
      }
    }

    #react,
    #native,
    #video {
      opacity: 0;
      transform-origin: 50% 50%;
    }

    #react {
      animation: fadeIn 2s ease-in forwards, fromLeft 1s ease-out forwards, zoom 0.2s ease-in-out;
      animation-delay: 0s, 0s, 2s;
    }

    #native {
      animation: fadeIn 2s ease-in forwards, fromRight 1s ease-out forwards, zoom 0.2s ease-in-out;
      animation-delay: 0.5s, 0.5s, 2.1s;
    }

    #video {
      animation: fadeIn 2s ease-in forwards, fromLeft 1s ease-out forwards, zoom 0.2s ease-in-out;
      animation-delay: 1s, 1s, 2.2s;
    }
  </style>


  <rect id="container" x="34.2529" y="3.5" width="391.494" height="218" rx="12.5" fill="url(#b)" stroke="white"
    stroke-width="7" />
  <path d="M460 106.117V119.885L433.567 141.965V124.746L445.841 112.945L433.567 101.256V84L460 106.117Z" fill="white" />
  <path
    d="M-2.68752e-05 106.117V119.885L26.4333 141.965V124.746L14.1594 112.945L26.4333 101.256V84L-2.68752e-05 106.117Z"
    fill="white" />
  <path
    d="M50.6776 203.625V186.375C50.6776 184.856 52.3053 183.891 53.6381 184.621L69.3907 193.246C70.7768 194.005 70.7768 195.995 69.3907 196.754L53.6381 205.379C52.3053 206.109 50.6776 205.144 50.6776 203.625Z"
    fill="white" />
  <rect x="86.5421" y="193" width="310.825" height="4" rx="2" fill="white" />
  <g id="video">
    <path d="M163.239 154H155.673L143.503 129.848H150.753L159.509 148.023L168.247 129.848H175.497L163.239 154Z"
      fill="white" />
    <path d="M179.455 154V129.848H185.952V154H179.455Z" fill="white" />
    <path
      d="M222.972 141.906C222.972 143.453 222.803 144.83 222.464 146.037C222.125 147.232 221.647 148.275 221.028 149.166C220.421 150.057 219.685 150.812 218.822 151.434C217.969 152.055 217.018 152.553 215.967 152.928C214.916 153.303 213.784 153.578 212.57 153.754C211.356 153.918 210.089 154 208.77 154H193.499V129.848H208.735C210.054 129.848 211.321 129.936 212.535 130.111C213.749 130.275 214.881 130.545 215.932 130.92C216.994 131.295 217.958 131.793 218.822 132.414C219.685 133.023 220.421 133.779 221.028 134.682C221.647 135.572 222.125 136.615 222.464 137.811C222.803 139.006 222.972 140.371 222.972 141.906ZM216.422 141.906C216.422 140.746 216.271 139.738 215.967 138.883C215.675 138.027 215.197 137.324 214.531 136.773C213.877 136.211 213.019 135.795 211.957 135.525C210.894 135.244 209.599 135.104 208.069 135.104H199.996V148.744H208.069C209.599 148.744 210.894 148.609 211.957 148.34C213.019 148.059 213.877 147.637 214.531 147.074C215.197 146.5 215.675 145.785 215.967 144.93C216.271 144.074 216.422 143.066 216.422 141.906Z"
      fill="white" />
    <path
      d="M255.737 152.805C253.764 153.461 251.791 153.93 249.818 154.211C247.856 154.504 245.848 154.65 243.794 154.65C241.167 154.65 238.826 154.369 236.771 153.807C234.728 153.232 233.006 152.406 231.605 151.328C230.204 150.25 229.136 148.932 228.401 147.373C227.665 145.814 227.297 144.051 227.297 142.082C227.297 140.254 227.665 138.561 228.401 137.002C229.148 135.432 230.198 134.072 231.553 132.924C232.919 131.764 234.565 130.861 236.491 130.217C238.417 129.561 240.566 129.232 242.935 129.232C245.119 129.232 247.115 129.531 248.925 130.129C250.746 130.715 252.304 131.588 253.6 132.748C254.908 133.908 255.918 135.338 256.63 137.037C257.354 138.736 257.716 140.693 257.716 142.908V144.525H234.004C234.215 145.287 234.559 145.984 235.038 146.617C235.528 147.25 236.188 147.789 237.016 148.234C237.845 148.68 238.861 149.025 240.064 149.271C241.278 149.518 242.725 149.641 244.406 149.641C245.597 149.641 246.765 149.57 247.909 149.43C249.053 149.277 250.121 149.084 251.114 148.85C252.106 148.604 252.999 148.334 253.793 148.041C254.598 147.748 255.246 147.455 255.737 147.162V152.805ZM251.254 139.744C251.195 139.146 251.014 138.531 250.711 137.898C250.419 137.254 249.952 136.674 249.31 136.158C248.668 135.643 247.827 135.221 246.788 134.893C245.749 134.553 244.453 134.383 242.9 134.383C241.441 134.383 240.18 134.564 239.118 134.928C238.055 135.291 237.162 135.742 236.439 136.281C235.726 136.82 235.172 137.4 234.775 138.021C234.378 138.643 234.121 139.217 234.004 139.744H251.254Z"
      fill="white" />
    <path
      d="M294.753 141.941C294.753 144.016 294.374 145.85 293.615 147.443C292.856 149.025 291.77 150.35 290.358 151.416C288.945 152.482 287.229 153.291 285.209 153.842C283.201 154.381 280.942 154.65 278.432 154.65C275.922 154.65 273.651 154.381 271.62 153.842C269.6 153.291 267.878 152.482 266.454 151.416C265.03 150.35 263.932 149.025 263.162 147.443C262.391 145.85 262.006 144.016 262.006 141.941C262.006 139.867 262.391 138.039 263.162 136.457C263.932 134.863 265.03 133.533 266.454 132.467C267.878 131.4 269.6 130.598 271.62 130.059C273.651 129.508 275.922 129.232 278.432 129.232C280.942 129.232 283.201 129.508 285.209 130.059C287.229 130.598 288.945 131.4 290.358 132.467C291.77 133.533 292.856 134.863 293.615 136.457C294.374 138.039 294.753 139.867 294.753 141.941ZM288.186 141.941C288.186 141.039 288.04 140.143 287.749 139.252C287.468 138.35 286.961 137.541 286.225 136.826C285.501 136.111 284.509 135.531 283.248 135.086C281.987 134.641 280.382 134.418 278.432 134.418C277.125 134.418 275.975 134.523 274.982 134.734C273.99 134.934 273.132 135.215 272.408 135.578C271.684 135.941 271.077 136.369 270.587 136.861C270.097 137.342 269.705 137.863 269.414 138.426C269.122 138.977 268.912 139.557 268.783 140.166C268.666 140.764 268.608 141.355 268.608 141.941C268.608 142.539 268.666 143.143 268.783 143.752C268.912 144.361 269.122 144.947 269.414 145.51C269.705 146.061 270.097 146.576 270.587 147.057C271.077 147.537 271.684 147.959 272.408 148.322C273.132 148.674 273.99 148.955 274.982 149.166C275.975 149.365 277.125 149.465 278.432 149.465C280.382 149.465 281.987 149.242 283.248 148.797C284.509 148.352 285.501 147.771 286.225 147.057C286.961 146.342 287.468 145.539 287.749 144.648C288.04 143.746 288.186 142.844 288.186 141.941Z"
      fill="white" />
  </g>
  <g id="native">
    <path
      d="M170.016 122V108.465C170.016 107.562 169.94 106.748 169.788 106.021C169.636 105.283 169.35 104.656 168.93 104.141C168.521 103.613 167.943 103.209 167.196 102.928C166.461 102.635 165.509 102.488 164.342 102.488C163.455 102.488 162.521 102.611 161.54 102.857C160.571 103.092 159.608 103.408 158.65 103.807C157.693 104.205 156.777 104.668 155.901 105.195C155.037 105.723 154.267 106.273 153.59 106.848V122H147.093V97.8477H153.59V101.152C154.407 100.684 155.277 100.221 156.199 99.7637C157.121 99.2949 158.102 98.873 159.141 98.498C160.18 98.123 161.283 97.8184 162.451 97.584C163.618 97.3496 164.85 97.2324 166.146 97.2324C167.768 97.2324 169.216 97.4316 170.489 97.8301C171.773 98.2168 172.859 98.7734 173.746 99.5C174.633 100.215 175.31 101.088 175.777 102.119C176.256 103.139 176.495 104.281 176.495 105.547V122H170.016Z"
      fill="white" />
    <path
      d="M204.339 122V119.627C203.51 120.084 202.617 120.488 201.66 120.84C200.714 121.191 199.728 121.49 198.7 121.736C197.673 121.982 196.611 122.164 195.513 122.281C194.427 122.41 193.33 122.475 192.221 122.475C190.925 122.475 189.67 122.352 188.456 122.105C187.253 121.859 186.185 121.461 185.251 120.91C184.317 120.359 183.564 119.639 182.992 118.748C182.432 117.857 182.152 116.768 182.152 115.479C182.152 113.85 182.595 112.496 183.482 111.418C184.37 110.328 185.724 109.438 187.545 108.746C189.366 108.055 191.666 107.521 194.445 107.146C197.235 106.771 200.533 106.479 204.339 106.268V105.758C204.339 105.359 204.234 104.967 204.024 104.58C203.814 104.182 203.429 103.836 202.868 103.543C202.319 103.238 201.561 102.992 200.592 102.805C199.634 102.617 198.408 102.523 196.914 102.523C195.735 102.523 194.567 102.588 193.412 102.717C192.268 102.834 191.158 102.998 190.084 103.209C189.022 103.42 188.012 103.666 187.055 103.947C186.098 104.229 185.228 104.521 184.446 104.826V99.0254C185.263 98.8145 186.179 98.6094 187.195 98.4102C188.211 98.2109 189.267 98.041 190.365 97.9004C191.462 97.748 192.571 97.6309 193.692 97.5488C194.813 97.4551 195.887 97.4082 196.914 97.4082C198.934 97.4082 200.796 97.5781 202.5 97.918C204.205 98.2461 205.67 98.7617 206.896 99.4648C208.133 100.168 209.097 101.059 209.785 102.137C210.486 103.215 210.836 104.498 210.836 105.986V122H204.339ZM204.339 110.979C201.841 111.072 199.716 111.207 197.965 111.383C196.225 111.559 194.778 111.764 193.622 111.998C192.466 112.232 191.555 112.484 190.89 112.754C190.236 113.023 189.746 113.299 189.419 113.58C189.092 113.861 188.888 114.143 188.806 114.424C188.736 114.705 188.701 114.963 188.701 115.197C188.701 115.479 188.777 115.754 188.929 116.023C189.08 116.281 189.343 116.51 189.717 116.709C190.102 116.908 190.61 117.066 191.24 117.184C191.871 117.301 192.665 117.359 193.622 117.359C194.684 117.359 195.723 117.277 196.739 117.113C197.755 116.949 198.718 116.727 199.628 116.445C200.539 116.152 201.391 115.812 202.185 115.426C202.991 115.027 203.709 114.605 204.339 114.16V110.979Z"
      fill="white" />
    <path d="M231.57 103.104V122H225.073V103.104H214.864V97.8477H241.797V103.104H231.57Z" fill="white" />
    <path d="M246.105 122V97.8477H252.602V122H246.105Z" fill="white" />
    <path d="M276.296 122H268.731L256.56 97.8477H263.81L272.566 116.023L281.304 97.8477H288.554L276.296 122Z"
      fill="white" />
    <path
      d="M318.99 120.805C317.017 121.461 315.044 121.93 313.071 122.211C311.11 122.504 309.101 122.65 307.047 122.65C304.42 122.65 302.079 122.369 300.024 121.807C297.981 121.232 296.259 120.406 294.858 119.328C293.457 118.25 292.389 116.932 291.654 115.373C290.918 113.814 290.55 112.051 290.55 110.082C290.55 108.254 290.918 106.561 291.654 105.002C292.401 103.432 293.452 102.072 294.806 100.924C296.172 99.7637 297.818 98.8613 299.744 98.2168C301.671 97.5605 303.819 97.2324 306.189 97.2324C308.372 97.2324 310.368 97.5312 312.178 98.1289C313.999 98.7148 315.558 99.5879 316.853 100.748C318.161 101.908 319.171 103.338 319.883 105.037C320.607 106.736 320.969 108.693 320.969 110.908V112.525H297.258C297.468 113.287 297.812 113.984 298.291 114.617C298.781 115.25 299.441 115.789 300.27 116.234C301.099 116.68 302.114 117.025 303.317 117.271C304.531 117.518 305.979 117.641 307.66 117.641C308.85 117.641 310.018 117.57 311.162 117.43C312.306 117.277 313.374 117.084 314.367 116.85C315.359 116.604 316.252 116.334 317.046 116.041C317.852 115.748 318.5 115.455 318.99 115.162V120.805ZM314.507 107.744C314.448 107.146 314.267 106.531 313.964 105.898C313.672 105.254 313.205 104.674 312.563 104.158C311.921 103.643 311.08 103.221 310.041 102.893C309.002 102.553 307.706 102.383 306.154 102.383C304.694 102.383 303.433 102.564 302.371 102.928C301.309 103.291 300.416 103.742 299.692 104.281C298.98 104.82 298.425 105.4 298.028 106.021C297.631 106.643 297.374 107.217 297.258 107.744H314.507Z"
      fill="white" />
  </g>
  <g id="react">
    <path
      d="M169.228 71.3145C169.053 71.2559 168.796 71.1797 168.457 71.0859C168.13 70.9805 167.745 70.8809 167.301 70.7871C166.858 70.6816 166.367 70.5938 165.83 70.5234C165.305 70.4531 164.762 70.418 164.202 70.418C163.034 70.418 161.943 70.5645 160.927 70.8574C159.923 71.1387 158.983 71.5195 158.108 72C157.232 72.4688 156.415 73.0078 155.656 73.6172C154.909 74.2148 154.22 74.8301 153.59 75.4629V90H147.093V65.8477H153.59V69.7676C154.372 69.1816 155.171 68.6191 155.989 68.0801C156.818 67.5293 157.676 67.043 158.563 66.6211C159.462 66.1992 160.408 65.8652 161.4 65.6191C162.392 65.3613 163.443 65.2324 164.552 65.2324C164.972 65.2324 165.398 65.2559 165.83 65.3027C166.274 65.3379 166.7 65.3848 167.109 65.4434C167.529 65.502 167.92 65.5664 168.282 65.6367C168.644 65.707 168.959 65.7773 169.228 65.8477V71.3145Z"
      fill="white" />
    <path
      d="M200.189 88.8047C198.216 89.4609 196.243 89.9297 194.27 90.2109C192.308 90.5039 190.3 90.6504 188.246 90.6504C185.619 90.6504 183.278 90.3691 181.223 89.8066C179.18 89.2324 177.458 88.4062 176.057 87.3281C174.656 86.25 173.588 84.9316 172.853 83.373C172.117 81.8145 171.749 80.0508 171.749 78.082C171.749 76.2539 172.117 74.5605 172.853 73.002C173.6 71.4316 174.651 70.0723 176.005 68.9238C177.371 67.7637 179.017 66.8613 180.943 66.2168C182.87 65.5605 185.018 65.2324 187.388 65.2324C189.571 65.2324 191.567 65.5312 193.377 66.1289C195.198 66.7148 196.756 67.5879 198.052 68.748C199.36 69.9082 200.37 71.3379 201.082 73.0371C201.806 74.7363 202.168 76.6934 202.168 78.9082V80.5254H178.456C178.667 81.2871 179.011 81.9844 179.49 82.6172C179.98 83.25 180.64 83.7891 181.469 84.2344C182.297 84.6797 183.313 85.0254 184.516 85.2715C185.73 85.5176 187.177 85.6406 188.859 85.6406C190.049 85.6406 191.217 85.5703 192.361 85.4297C193.505 85.2773 194.573 85.084 195.566 84.8496C196.558 84.6035 197.451 84.334 198.245 84.041C199.051 83.748 199.698 83.4551 200.189 83.1621V88.8047ZM195.706 75.7441C195.647 75.1465 195.466 74.5312 195.163 73.8984C194.871 73.2539 194.404 72.6738 193.762 72.1582C193.12 71.6426 192.279 71.2207 191.24 70.8926C190.201 70.5527 188.905 70.3828 187.353 70.3828C185.893 70.3828 184.632 70.5645 183.57 70.9277C182.508 71.291 181.614 71.7422 180.891 72.2812C180.179 72.8203 179.624 73.4004 179.227 74.0215C178.83 74.6426 178.573 75.2168 178.456 75.7441H195.706Z"
      fill="white" />
    <path
      d="M228.471 90V87.627C227.642 88.084 226.749 88.4883 225.791 88.8398C224.846 89.1914 223.859 89.4902 222.832 89.7363C221.804 89.9824 220.742 90.1641 219.645 90.2812C218.559 90.4102 217.461 90.4746 216.352 90.4746C215.056 90.4746 213.801 90.3516 212.587 90.1055C211.385 89.8594 210.317 89.4609 209.383 88.9102C208.449 88.3594 207.696 87.6387 207.124 86.748C206.563 85.8574 206.283 84.7676 206.283 83.4785C206.283 81.8496 206.727 80.4961 207.614 79.418C208.501 78.3281 209.855 77.4375 211.677 76.7461C213.498 76.0547 215.798 75.5215 218.576 75.1465C221.367 74.7715 224.665 74.4785 228.471 74.2676V73.7578C228.471 73.3594 228.366 72.9668 228.155 72.5801C227.945 72.1816 227.56 71.8359 227 71.543C226.451 71.2383 225.692 70.9922 224.723 70.8047C223.766 70.6172 222.54 70.5234 221.046 70.5234C219.866 70.5234 218.699 70.5879 217.543 70.7168C216.399 70.834 215.29 70.998 214.216 71.209C213.154 71.4199 212.144 71.666 211.186 71.9473C210.229 72.2285 209.359 72.5215 208.577 72.8262V67.0254C209.394 66.8145 210.311 66.6094 211.326 66.4102C212.342 66.2109 213.399 66.041 214.496 65.9004C215.594 65.748 216.703 65.6309 217.823 65.5488C218.944 65.4551 220.018 65.4082 221.046 65.4082C223.065 65.4082 224.927 65.5781 226.632 65.918C228.336 66.2461 229.802 66.7617 231.027 67.4648C232.265 68.168 233.228 69.0586 233.917 70.1367C234.617 71.2148 234.968 72.498 234.968 73.9863V90H228.471ZM228.471 78.9785C225.972 79.0723 223.847 79.207 222.096 79.3828C220.357 79.5586 218.909 79.7637 217.753 79.998C216.598 80.2324 215.687 80.4844 215.021 80.7539C214.368 81.0234 213.877 81.2988 213.55 81.5801C213.224 81.8613 213.019 82.1426 212.938 82.4238C212.867 82.7051 212.832 82.9629 212.832 83.1973C212.832 83.4785 212.908 83.7539 213.06 84.0234C213.212 84.2812 213.475 84.5098 213.848 84.709C214.233 84.9082 214.741 85.0664 215.372 85.1836C216.002 85.3008 216.796 85.3594 217.753 85.3594C218.816 85.3594 219.855 85.2773 220.87 85.1133C221.886 84.9492 222.849 84.7266 223.76 84.4453C224.671 84.1523 225.523 83.8125 226.317 83.4258C227.122 83.0273 227.84 82.6055 228.471 82.1602V78.9785Z"
      fill="white" />
    <path
      d="M268.906 88.3477C268.065 88.6992 267.219 89.0156 266.366 89.2969C265.514 89.5781 264.633 89.8184 263.722 90.0176C262.812 90.2285 261.848 90.3867 260.833 90.4922C259.829 90.5977 258.749 90.6504 257.593 90.6504C255.141 90.6504 252.882 90.3867 250.816 89.8594C248.761 89.332 246.987 88.541 245.492 87.4863C244.01 86.4199 242.854 85.0957 242.025 83.5137C241.196 81.9199 240.782 80.0625 240.782 77.9414C240.782 75.8203 241.196 73.9688 242.025 72.3867C242.854 70.793 244.01 69.4688 245.492 68.4141C246.987 67.3477 248.761 66.5508 250.816 66.0234C252.882 65.4961 255.141 65.2324 257.593 65.2324C258.749 65.2324 259.829 65.2852 260.833 65.3906C261.848 65.4961 262.812 65.6543 263.722 65.8652C264.633 66.0645 265.514 66.3047 266.366 66.5859C267.219 66.8672 268.065 67.1836 268.906 67.5352V73.4062C268.24 73.043 267.54 72.6855 266.804 72.334C266.069 71.9707 265.257 71.6484 264.37 71.3672C263.483 71.0742 262.508 70.8398 261.446 70.6641C260.383 70.4766 259.187 70.3828 257.856 70.3828C255.813 70.3828 254.114 70.5938 252.76 71.0156C251.417 71.4375 250.343 72 249.537 72.7031C248.732 73.4062 248.166 74.2148 247.839 75.1289C247.512 76.0312 247.349 76.9688 247.349 77.9414C247.349 78.5859 247.419 79.2246 247.559 79.8574C247.699 80.4785 247.932 81.0703 248.259 81.6328C248.586 82.1836 249.012 82.6934 249.537 83.1621C250.063 83.6309 250.717 84.0352 251.499 84.375C252.281 84.7148 253.192 84.9844 254.231 85.1836C255.281 85.3711 256.49 85.4648 257.856 85.4648C259.187 85.4648 260.383 85.3828 261.446 85.2188C262.508 85.043 263.483 84.8145 264.37 84.5332C265.257 84.252 266.069 83.9355 266.804 83.584C267.54 83.2207 268.24 82.8516 268.906 82.4766V88.3477Z"
      fill="white" />
    <path d="M288.449 71.1035V90H281.952V71.1035H271.743V65.8477H298.676V71.1035H288.449Z" fill="white" />
  </g>

</svg>
