<svg width="530" height="357" viewBox="0 0 530 357" fill="none" xmlns="http://www.w3.org/2000/svg">
  <g filter="url(#filter0_f_46_18)">
    <rect x="85.4019" y="86.041" width="359.087" height="185.175" rx="30.0377" fill="url(#paint0_linear_46_18)" />
  </g>
  <g filter="url(#filter1_d_46_18)">
    <rect x="85.4019" y="86.041" width="359.087" height="185.175" rx="30.0377" fill="url(#paint1_linear_46_18)" />
  </g>
  <rect x="88.8154" y="89.2837" width="352.26" height="179.202" rx="30.0377" fill="url(#paint2_linear_46_18)" />
  <path opacity="0.7"
    d="M88.8154 146.628C88.8154 119.596 88.8154 106.08 97.2134 97.6816C105.611 89.2837 119.128 89.2837 146.16 89.2837H383.731C410.763 89.2837 424.28 89.2837 432.678 97.6816C441.075 106.08 441.075 119.596 441.075 146.628V197.317C441.075 224.349 441.075 237.866 432.678 246.264C424.28 254.662 410.763 254.662 383.731 254.662H146.16C119.128 254.662 105.611 254.662 97.2134 246.264C88.8154 237.866 88.8154 224.349 88.8154 197.317V146.628Z"
    fill="url(#paint3_linear_46_18)" />
  <path fill-rule="evenodd" clip-rule="evenodd"
    d="M97.2134 97.6816C88.8154 106.08 88.8154 119.596 88.8154 146.628V197.317C88.8154 202.938 88.8154 207.974 88.8909 212.502C119.06 210.286 147.492 200.504 178.899 189.699C233.282 170.988 296.588 149.209 393.288 158.319C410.985 159.987 426.858 162.723 441.075 166.335V146.628C441.075 119.596 441.075 106.08 432.678 97.6816C424.28 89.2837 410.763 89.2837 383.731 89.2837H146.16C119.128 89.2837 105.611 89.2837 97.2134 97.6816Z"
    fill="url(#paint4_linear_46_18)" />
  <path fill-rule="evenodd" clip-rule="evenodd"
    d="M97.2134 97.6816C88.8154 106.08 88.8154 119.596 88.8154 146.628V197.317C88.8154 202.938 88.8154 207.974 88.8909 212.502C119.06 210.286 147.492 200.504 178.899 189.699C233.282 170.988 296.588 149.209 393.288 158.319C410.985 159.987 426.858 162.723 441.075 166.335V146.628C441.075 119.596 441.075 106.08 432.678 97.6816C424.28 89.2837 410.763 89.2837 383.731 89.2837H146.16C119.128 89.2837 105.611 89.2837 97.2134 97.6816Z"
    fill="url(#paint5_linear_46_18)" />
  <g filter="url(#filter2_d_46_18)">
    <path
      d="M234.054 205.699V144.373C234.054 139.382 239.456 136.261 243.78 138.755L296.863 169.37C301.186 171.864 301.191 178.103 296.87 180.602L243.787 211.313C239.464 213.814 234.054 210.694 234.054 205.699Z"
      fill="url(#paint6_linear_46_18)" />
  </g>
  <defs>
    <filter id="filter0_f_46_18" x="0.067543" y="0.706703" width="529.756" height="355.844" filterUnits="userSpaceOnUse"
      color-interpolation-filters="sRGB">
      <feFlood flood-opacity="0" result="BackgroundImageFix" />
      <feBlend mode="normal" in="SourceGraphic" in2="BackgroundImageFix" result="shape" />
      <feGaussianBlur stdDeviation="32.6672" result="effect1_foregroundBlur_46_18" />
    </filter>
    <filter id="filter1_d_46_18" x="84.7192" y="86.041" width="360.452" height="186.541" filterUnits="userSpaceOnUse"
      color-interpolation-filters="sRGB">
      <feFlood flood-opacity="0" result="BackgroundImageFix" />
      <feColorMatrix in="SourceAlpha" type="matrix" values="0 0 0 0 0 0 0 0 0 0 0 0 0 0 0 0 0 0 127 0"
        result="hardAlpha" />
      <feOffset dy="0.682675" />
      <feGaussianBlur stdDeviation="0.341337" />
      <feComposite in2="hardAlpha" operator="out" />
      <feColorMatrix type="matrix" values="0 0 0 0 0 0 0 0 0 0 0 0 0 0 0 0 0 0 1 0" />
      <feBlend mode="normal" in2="BackgroundImageFix" result="effect1_dropShadow_46_18" />
      <feBlend mode="normal" in="SourceGraphic" in2="effect1_dropShadow_46_18" result="shape" />
    </filter>
    <filter id="filter2_d_46_18" x="221.766" y="129.003" width="90.63" height="98.8929" filterUnits="userSpaceOnUse"
      color-interpolation-filters="sRGB">
      <feFlood flood-opacity="0" result="BackgroundImageFix" />
      <feColorMatrix in="SourceAlpha" type="matrix" values="0 0 0 0 0 0 0 0 0 0 0 0 0 0 0 0 0 0 127 0"
        result="hardAlpha" />
      <feOffset dy="3.41337" />
      <feGaussianBlur stdDeviation="6.14407" />
      <feComposite in2="hardAlpha" operator="out" />
      <feColorMatrix type="matrix" values="0 0 0 0 0 0 0 0 0 0 0 0 0 0 0 0 0 0 0.3 0" />
      <feBlend mode="normal" in2="BackgroundImageFix" result="effect1_dropShadow_46_18" />
      <feBlend mode="normal" in="SourceGraphic" in2="effect1_dropShadow_46_18" result="shape" />
    </filter>
    <linearGradient id="paint0_linear_46_18" x1="147.696" y1="86.041" x2="264.945" y2="271.216"
      gradientUnits="userSpaceOnUse">
      <stop stop-color="#942727">
        <animate attributeName="stop-color" values="#942727;#7FFFD4;#FF7F50;#DC143C;#7FFFD4;#942727;" dur="10s"
          repeatCount="indefinite">
        </animate>
      </stop>
      <stop offset="1" stop-color="#8A00CB">
        <animate attributeName="stop-color" values="#8A00CB;#7B68EE;#32CD32;#FF7F50;#DC143C;#7FFFD4;#8B008B;#8A00CB;"
          dur="10s" repeatCount="indefinite">
        </animate>
      </stop>
    </linearGradient>
    <linearGradient id="paint1_linear_46_18" x1="147.696" y1="86.041" x2="264.945" y2="271.216"
      gradientUnits="userSpaceOnUse">
      <stop stop-color="#942727">
        <animate attributeName="stop-color" values="#942727;#7FFFD4;#FF7F50;#DC143C;#7FFFD4;#942727;" dur="10s"
          repeatCount="indefinite">
        </animate>
      </stop>
      <stop offset="1" stop-color="#8A00CB">
        <animate attributeName="stop-color" values="#8A00CB;#7B68EE;#32CD32;#FF7F50;#DC143C;#7FFFD4;#8B008B;#8A00CB;"
          dur="10s" repeatCount="indefinite">
        </animate>
      </stop>
    </linearGradient>
    <linearGradient id="paint2_linear_46_18" x1="323.911" y1="385.507" x2="317.766" y2="207.646"
      gradientUnits="userSpaceOnUse">
      <stop />
      <stop offset="1" stop-opacity="0" />
    </linearGradient>
    <linearGradient id="paint3_linear_46_18" x1="157.241" y1="-114.239" x2="194.923" y2="218.197"
      gradientUnits="userSpaceOnUse">
      <stop stop-color="white" />
      <stop offset="1" stop-color="white" stop-opacity="0" />
    </linearGradient>
    <linearGradient id="paint4_linear_46_18" x1="173.467" y1="-202.816" x2="264.945" y2="212.502"
      gradientUnits="userSpaceOnUse">
      <stop stop-color="#D9D9D9" />
      <stop offset="1" stop-color="#D9D9D9" stop-opacity="0" />
    </linearGradient>
    <linearGradient id="paint5_linear_46_18" x1="222.79" y1="28.611" x2="221.084" y2="108.057"
      gradientUnits="userSpaceOnUse">
      <stop stop-color="#D9D9D9" />
      <stop offset="1" stop-color="#D9D9D9" stop-opacity="0" />
    </linearGradient>
    <linearGradient id="paint6_linear_46_18" x1="270.321" y1="133.146" x2="270.321" y2="216.944"
      gradientUnits="userSpaceOnUse">
      <stop stop-color="white" />
      <stop offset="1" stop-color="#9F9F9F" />
    </linearGradient>
  </defs>
</svg>
